<?xml version="1.0" encoding="UTF-8" standalone="no"?>
<svg
   xmlns:dc="http://purl.org/dc/elements/1.1/"
   xmlns:cc="http://creativecommons.org/ns#"
   xmlns:rdf="http://www.w3.org/1999/02/22-rdf-syntax-ns#"
   xmlns:svg="http://www.w3.org/2000/svg"
   xmlns="http://www.w3.org/2000/svg"
   xmlns:sodipodi="http://sodipodi.sourceforge.net/DTD/sodipodi-0.dtd"
   xmlns:inkscape="http://www.inkscape.org/namespaces/inkscape"
   version="1.1"
   x="0px"
   y="0px"
   viewBox="0 0 100 125"
   enable-background="new 0 0 100 100"
   xml:space="preserve"
   id="svg2"
   inkscape:version="0.91 r13725"
   sodipodi:docname="Q189760_noun_84860_ccReJeanSoo_vote.svg"><metadata
     id="metadata24"><rdf:RDF><cc:Work
         rdf:about=""><dc:format>image/svg+xml</dc:format><dc:type
           rdf:resource="http://purl.org/dc/dcmitype/StillImage" /><dc:title></dc:title></cc:Work></rdf:RDF></metadata><defs
     id="defs22" /><sodipodi:namedview
     pagecolor="#ffffff"
     bordercolor="#666666"
     borderopacity="1"
     objecttolerance="10"
     gridtolerance="10"
     guidetolerance="10"
     inkscape:pageopacity="0"
     inkscape:pageshadow="2"
     inkscape:window-width="1280"
     inkscape:window-height="1002"
     id="namedview20"
     showgrid="false"
     inkscape:zoom="5.3400704"
     inkscape:cx="55.91823"
     inkscape:cy="43.583163"
     inkscape:window-x="-8"
     inkscape:window-y="18"
     inkscape:window-maximized="1"
     inkscape:current-layer="svg2" /><g
     id="g4"
     transform="translate(0,8)"><path
       d="m 79.243,53.828 c -0.101,-0.226 -0.208,-0.32 -0.474,-0.32 -4.106,0.011 -8.212,0.007 -12.318,0.008 -0.106,0 -0.212,0.01 -0.325,0.015 l 0,6.485 0.381,0 c 1.019,0 2.037,0.009 3.056,-0.005 0.246,-0.004 0.357,0.063 0.429,0.309 0.466,1.601 0.949,3.196 1.426,4.795 0.027,0.091 0.043,0.184 0.065,0.288 l -45.441,0 c 0.005,-0.058 0.002,-0.091 0.012,-0.122 0.503,-1.691 1.01,-3.383 1.507,-5.076 0.055,-0.185 0.168,-0.19 0.317,-0.19 0.834,0.004 1.668,0.002 2.502,0.002 l 1.011,0 0,-6.5 -0.38,0 c -4.074,0 -8.147,0.003 -12.222,-0.008 -0.279,0 -0.412,0.08 -0.526,0.339 -2.508,5.664 -5.024,11.324 -7.542,16.985 -0.278,0.625 -0.568,1.247 -0.854,1.869 l 77.755,0 C 84.83,66.41 82.033,60.12 79.243,53.828 Z"
       id="path6"
       inkscape:connector-curvature="0"
       style="clip-rule:evenodd;fill-rule:evenodd" /><path
       d="m 9.867,75.345 0,17.118 c 0.142,-0.004 0.283,-0.01 0.421,-0.01 l 77.58,0 c 0.007,-0.302 0.021,-0.448 0.021,-0.595 0,-5.504 -0.008,-11.01 -0.008,-16.514 l -78.014,0 z"
       id="path8"
       inkscape:connector-curvature="0"
       style="clip-rule:evenodd;fill-rule:evenodd" /><path
       d="m 91.263,11.595 -19.647,0 0,17.118 c 0.036,-0.004 0.071,-0.01 0.106,-0.01 l 19.536,0 c 0.002,-0.302 0.006,-0.448 0.006,-0.595 0.001,-5.504 -10e-4,-11.009 -10e-4,-16.513 z"
       id="path10"
       inkscape:connector-curvature="0"
       style="clip-rule:evenodd;fill-rule:evenodd" /><path
       d="m 63.905,37.26 c -0.198,0 -0.371,0.019 -0.541,-0.003 -0.493,-0.066 -0.88,0.121 -1.277,0.406 -3.692,2.657 -7.396,5.298 -11.098,7.943 -0.789,0.563 -1.615,1.049 -2.559,1.309 -2.144,0.591 -4.098,-0.508 -4.568,-2.677 -0.46,-2.121 -0.064,-4.09 1.387,-5.778 0.329,-0.381 0.664,-0.758 1.036,-1.181 -4.265,0 -8.46,0 -12.667,0 0,8.666 0,17.313 0,25.968 10.106,0 20.185,0 30.287,0 0,-8.657 0,-17.297 0,-25.987 z"
       id="path12"
       inkscape:connector-curvature="0"
       style="clip-rule:evenodd;fill-rule:evenodd" /><path
       d="m 47.041,35.101 c 0.22,0.002 0.267,-0.119 0.322,-0.281 0.41,-1.199 0.852,-2.387 1.224,-3.598 0.219,-0.711 0.674,-1.141 1.316,-1.423 1.001,-0.442 2.058,-0.613 3.141,-0.5 0.476,0.048 0.96,0.186 1.395,0.381 0.515,0.23 0.656,0.725 0.409,1.234 -0.13,0.268 -0.311,0.523 -0.51,0.747 -2.55,2.835 -5.106,5.663 -7.661,8.495 -0.129,0.144 -0.27,0.294 -0.347,0.466 -0.453,1.021 -0.586,2.085 -0.305,3.172 0.242,0.933 0.924,1.335 1.833,1.021 0.604,-0.21 1.2,-0.513 1.721,-0.883 5.081,-3.604 10.145,-7.229 15.209,-10.855 0.129,-0.092 0.243,-0.248 0.295,-0.398 0.313,-0.889 0.596,-1.788 0.91,-2.676 0.072,-0.205 0.199,-0.409 0.351,-0.565 0.917,-0.937 1.845,-1.863 2.777,-2.784 0.157,-0.156 0.23,-0.311 0.23,-0.538 -0.007,-3.023 -0.004,-6.045 -0.005,-9.068 0,-0.116 -0.011,-0.23 -0.018,-0.36 -0.124,-0.007 -0.221,-0.017 -0.315,-0.017 -3.412,-10e-4 -6.825,-0.003 -10.239,0.006 -0.171,0 -0.361,0.063 -0.511,0.152 -2.355,1.402 -4.708,2.808 -7.054,4.225 -1.509,0.913 -3.019,1.828 -4.506,2.777 -1.315,0.84 -2.289,2 -2.85,3.455 -0.556,1.444 -1.035,2.917 -1.537,4.383 -0.382,1.115 -0.747,2.236 -1.134,3.398 0.101,0.015 0.151,0.029 0.203,0.029 1.886,0 3.771,-0.004 5.656,0.005 z"
       id="path14"
       inkscape:connector-curvature="0"
       style="clip-rule:evenodd;fill-rule:evenodd" /></g></svg>