<?xml version="1.0" encoding="utf-8"?><!-- Generator: Adobe Illustrator 23.0.2, SVG Export Plug-In . SVG Version: 6.00 Build 0)  -->
<svg version="1.1" id="Layer_1" xmlns="http://www.w3.org/2000/svg"
    xmlns:xlink="http://www.w3.org/1999/xlink" x="0px" y="0px" viewBox="0 0 529.9 441.6"
    style="enable-background:new 0 0 529.9 441.6;" xml:space="preserve">
<style type="text/css">
	.st0{fill:#f3f1eb;}
	.st1{fill:none;stroke:#f3f1eb;stroke-width:8;stroke-miterlimit:10;}
	.st2{fill:none;stroke:#f3f1eb;stroke-width:11;stroke-miterlimit:10;}
</style>

    <g>
	<g>
		<path  class="st0" d="M80.9,391.7c-5.5,0-10-1.1-13.6-3.2c-3.6-2.2-6.6-4.7-9-7.6v9.5H37.7v-98.8h20.6v36.7
			c2.5-3.4,5.6-6.2,9.1-8.5c3.6-2.2,8.1-3.3,13.5-3.3c4.2,0,8.3,0.8,12.3,2.4c4,1.6,7.5,4,10.6,7.2c3.1,3.2,5.5,7.1,7.4,11.8
			c1.8,4.6,2.8,10,2.8,16v0.3c0,6-0.9,11.4-2.8,16c-1.9,4.6-4.3,8.6-7.3,11.8c-3,3.2-6.5,5.6-10.5,7.2
			C89.4,390.9,85.2,391.7,80.9,391.7z M75.6,374.2c2.4,0,4.7-0.5,6.8-1.4c2.1-0.9,4-2.3,5.6-4.1c1.6-1.8,2.9-3.9,3.9-6.3
			s1.4-5.2,1.4-8.3v-0.3c0-3-0.5-5.7-1.4-8.2c-0.9-2.5-2.2-4.6-3.9-6.4c-1.6-1.8-3.5-3.1-5.6-4.1c-2.1-0.9-4.4-1.4-6.8-1.4
			s-4.7,0.5-6.8,1.4c-2.1,0.9-4,2.3-5.5,4.1c-1.6,1.8-2.8,3.9-3.8,6.4c-0.9,2.5-1.4,5.2-1.4,8.2v0.3c0,3,0.5,5.7,1.4,8.2
			c0.9,2.5,2.2,4.6,3.8,6.4c1.6,1.8,3.4,3.1,5.5,4.1C70.9,373.8,73.2,374.2,75.6,374.2z" />
        <path class="st0" d="M123.3,317.8h20.6v72.5h-20.6V317.8z" />
        <path class="st0" d="M180.9,391.6c-3.2,0-6-0.3-8.6-1c-2.6-0.7-4.8-1.9-6.6-3.6c-1.9-1.7-3.3-3.9-4.3-6.7c-1-2.8-1.6-6.2-1.6-10.5
			v-34.4h-8.7v-17.6h8.7v-18.5h20.6v18.5h17.1v17.6h-17.1v31.1c0,4.7,2.2,7.1,6.6,7.1c3.6,0,7-0.9,10.1-2.7v16.5
			c-2.2,1.3-4.6,2.3-7.2,3C187.4,391.2,184.3,391.6,180.9,391.6z" />
        <path class="st0"
            d="M199.8,295.6h23l24.8,66.7l24.8-66.7h22.5L256.5,391h-18.4L199.8,295.6z" />
        <path class="st0" d="M325,392c-5.6,0-10.8-1-15.6-2.9c-4.8-1.9-8.9-4.6-12.4-8c-3.5-3.4-6.2-7.4-8.2-11.9c-2-4.6-3-9.5-3-14.7
			v-0.3c0-5.2,1-10.1,3-14.7c2-4.6,4.7-8.5,8.3-12c3.5-3.4,7.7-6.1,12.5-8.1c4.8-2,10-3,15.7-3c5.6,0,10.8,1,15.6,2.9
			c4.8,1.9,8.9,4.6,12.4,8c3.5,3.4,6.2,7.4,8.2,11.9c2,4.6,3,9.5,3,14.7v0.3c0,5.2-1,10.1-3,14.7c-2,4.6-4.7,8.5-8.3,12
			c-3.5,3.4-7.7,6.1-12.5,8.1C335.9,391,330.7,392,325,392z M325.3,374.2c3,0,5.6-0.5,7.9-1.6c2.3-1,4.3-2.5,5.9-4.3
			c1.6-1.8,2.9-3.9,3.7-6.3c0.9-2.4,1.3-4.9,1.3-7.6v-0.3c0-2.7-0.5-5.3-1.4-7.6c-0.9-2.4-2.2-4.5-3.9-6.4c-1.7-1.8-3.7-3.3-6.1-4.4
			c-2.3-1.1-4.9-1.6-7.7-1.6c-3,0-5.6,0.5-7.9,1.6c-2.3,1-4.3,2.5-5.9,4.3c-1.6,1.8-2.9,3.9-3.7,6.3c-0.9,2.4-1.3,4.9-1.3,7.6v0.3
			c0,2.7,0.5,5.3,1.4,7.6c0.9,2.4,2.2,4.5,3.9,6.4c1.7,1.9,3.7,3.3,6,4.4C319.8,373.7,322.4,374.2,325.3,374.2z" />
        <path color="red" class="st0" d="M397,391.6c-3.2,0-6-0.3-8.6-1c-2.6-0.7-4.8-1.9-6.6-3.6c-1.9-1.7-3.3-3.9-4.3-6.7c-1-2.8-1.6-6.2-1.6-10.5
			v-34.4h-8.7v-17.6h8.7v-18.5h20.6v18.5h17.1v17.6h-17.1v31.1c0,4.7,2.2,7.1,6.6,7.1c3.6,0,7-0.9,10.2-2.7v16.5
			c-2.2,1.3-4.6,2.3-7.2,3C403.4,391.2,400.4,391.6,397,391.6z" />
        <path color="red" class="st0" d="M456.3,392c-5.4,0-10.4-0.9-15.1-2.7c-4.6-1.8-8.7-4.4-12-7.7c-3.4-3.3-6-7.3-7.9-11.8
			c-1.9-4.6-2.8-9.6-2.8-15.2v-0.3c0-5.1,0.9-10,2.6-14.6c1.8-4.6,4.2-8.6,7.4-12c3.2-3.4,6.9-6.1,11.3-8.1c4.4-2,9.2-3,14.5-3
			c6,0,11.3,1.1,15.7,3.2c4.4,2.2,8.1,5.1,11,8.7c2.9,3.7,5.1,7.8,6.5,12.6c1.4,4.7,2.1,9.7,2.1,14.8c0,0.8,0,1.7-0.1,2.6
			c0,0.9-0.1,1.8-0.2,2.8h-50.5c1,4.7,3,8.2,6.2,10.6c3.1,2.4,7,3.6,11.6,3.6c3.4,0,6.5-0.6,9.2-1.8c2.7-1.2,5.5-3.1,8.4-5.7
			l11.8,10.4c-3.4,4.2-7.6,7.6-12.5,9.9C468.6,390.8,462.9,392,456.3,392z M469.5,348.4c-0.6-4.6-2.3-8.3-4.9-11.2
			c-2.6-2.8-6.1-4.3-10.4-4.3s-7.8,1.4-10.5,4.2c-2.7,2.8-4.4,6.5-5.2,11.2H469.5z" />
	</g>
        <g>
		<circle class="st0" cx="54.6" cy="147.9" r="17.2" />
            <circle class="st0" cx="184.7" cy="123.7" r="17.2" />
            <circle class="st0" cx="132" cy="64.6" r="12.2" />
            <circle class="st0" cx="134" cy="300.3" r="12.2" />
            <circle class="st0" cx="384.5" cy="118.2" r="17.2" />
            <circle class="st0" cx="261.2" cy="127.8" r="17.2" />
            <circle class="st0" cx="177.8" cy="209.4" r="29" />
            <circle class="st0" cx="366.6" cy="201.5" r="29" />
            <line class="st1" x1="177.8" y1="209.4" x2="54.6" y2="147.9" />
            <path class="st2" d="M261.2,127.8" />
            <path class="st2" d="M384.7,177.3" />
            <path class="st2" d="M177.8,209.4" />
            <line class="st1" x1="134" y1="300.3" x2="177.8" y2="209.4" />
            <polyline class="st1"
                points="177.8,209.4 261.8,127.9 366.6,201.5 303,263.9 177.8,209.4 		" />
            <polyline class="st1" points="177.8,209.4 184.7,123.7 132.6,64.7 		" />
            <circle class="st0" cx="462.1" cy="91.9" r="12.2" />
            <circle class="st0" cx="473.3" cy="246.2" r="12.2" />
            <line class="st1" x1="462.7" y1="92.1" x2="384.5" y2="118.2" />
            <circle class="st0" cx="332.7" cy="61.8" r="12.2" />
            <circle class="st0" cx="301.1" cy="263.9" r="12.2" />
            <line class="st1" x1="330.3" y1="58.3" x2="385.2" y2="117.9" />
            <line class="st1" x1="384.5" y1="118.2" x2="366.6" y2="201.5" />
            <line class="st1" x1="363.5" y1="204.5" x2="473.3" y2="246.2" />
	</g>
</g>
</svg>
