<?xml version="1.0" encoding="utf-8"?>
<!-- Generator: Adobe Illustrator 23.0.2, SVG Export Plug-In . SVG Version: 6.00 Build 0)  -->
<svg version="1.1" id="Layer_1" xmlns="http://www.w3.org/2000/svg" xmlns:xlink="http://www.w3.org/1999/xlink" x="0px" y="0px"
	 viewBox="0 0 500 500" style="enable-background:new 0 0 500 500;" xml:space="preserve">
<style type="text/css">
	.st0{fill:#181818;}
	.st1{fill:#FFFFFF;}
</style>
<g>
	<g>
		<polygon class="st0" points="410.6,392.1 100,392.1 112.9,370.7 397.7,370.7 		"/>
	</g>
</g>
<g>
	<g>
		<path class="st1" d="M155.2,126.8c-10.3-7.6-23.2-3.7-30.7,6.6l-0.1,0.1c-7.5,10.3-7.3,23.5,3,31.1c10.4,7.6,23.2,3.7,30.7-6.6
			l0.1-0.1C165.8,147.6,165.6,134.4,155.2,126.8z M148,150.6l-0.1,0.1c-4.2,5.8-9.8,8-13.9,5c-4-3-3.7-9.1,0.5-14.9l0.1-0.1
			c4.2-5.8,9.9-8,13.9-5.1C152.7,138.6,152.3,144.7,148,150.6z"/>
	</g>
	<g>
		<path class="st1" d="M193.4,154.7c-10.3-7.6-23.2-3.7-30.7,6.6l-0.1,0.1c-7.5,10.3-7.3,23.5,3,31.1c10.4,7.6,23.2,3.7,30.7-6.6
			l0.1-0.1C204,175.5,203.8,162.3,193.4,154.7z M186.2,178.5l-0.1,0.1c-4.2,5.8-9.8,8-13.9,5c-4-3-3.7-9.1,0.5-14.9l0.1-0.1
			c4.3-5.8,9.9-8,13.9-5.1C190.9,166.5,190.5,172.7,186.2,178.5z"/>
	</g>
	<g>
		<path class="st1" d="M222.6,176.7l-12.9-4.8l-3.8,9.2l7.2,3l-20,27.3l9.9,7.2l26.8-36.6L222.6,176.7z"/>
	</g>
	<g>
		<path class="st1" d="M253.1,198.3c-10.3-7.5-23.2-3.7-30.7,6.6l-0.1,0.1c-7.5,10.3-7.3,23.5,3,31.1c10.4,7.6,23.2,3.7,30.7-6.6
			l0.1-0.1C263.6,219.1,263.4,205.9,253.1,198.3z M245.9,222.1l-0.1,0.1c-4.2,5.8-9.8,8-13.9,5c-4.1-3-3.7-9.1,0.5-14.9l0.1-0.1
			c4.2-5.8,9.9-8,13.9-5.1C250.5,210.1,250.1,216.3,245.9,222.1z"/>
	</g>
	<g>
		<path class="st1" d="M282.2,220.4l-12.9-4.8l-3.8,9.2l7.2,3l-19.9,27.3l9.9,7.3l26.8-36.7L282.2,220.4z"/>
	</g>
	<g>
		<path class="st1" d="M312.7,241.9c-10.3-7.6-23.2-3.7-30.7,6.6l-0.1,0.1c-7.5,10.3-7.3,23.5,3,31.1c10.4,7.6,23.2,3.7,30.7-6.6
			l0.1-0.1C323.2,262.8,323,249.5,312.7,241.9z M305.5,265.7l-0.1,0.1c-4.2,5.8-9.8,8-13.9,5c-4-3-3.7-9.1,0.5-14.9l0.1-0.1
			c4.3-5.8,9.9-8,13.9-5.1C310.1,253.7,309.8,259.9,305.5,265.7z"/>
	</g>
	<g>
		<path class="st1" d="M350.9,269.9c-10.3-7.6-23.2-3.7-30.7,6.6l-0.1,0.1c-7.5,10.3-7.3,23.5,3,31.1c10.4,7.6,23.2,3.7,30.7-6.6
			l0.1-0.1C361.4,290.7,361.2,277.4,350.9,269.9z M343.7,293.7l-0.1,0.1c-4.2,5.8-9.8,8-13.9,5c-4.1-3-3.7-9.1,0.5-14.9l0.1-0.1
			c4.3-5.8,9.9-8,13.9-5.1C348.3,281.7,348,287.8,343.7,293.7z"/>
	</g>
	<g>
		<path class="st1" d="M380,291.9l-12.9-4.8l-3.8,9.2l7.2,3l-19.9,27.3l9.9,7.3l26.8-36.7L380,291.9z"/>
	</g>
	<g>
		<path class="st1" d="M410.5,313.5c-10.3-7.6-23.2-3.7-30.7,6.6l-0.1,0.1c-7.5,10.3-7.3,23.5,3,31.1c10.4,7.6,23.2,3.7,30.7-6.6
			l0.1-0.1C421.1,334.3,420.9,321.1,410.5,313.5z M403.3,337.3l-0.1,0.1c-4.2,5.8-9.8,8-13.9,5c-4-3-3.7-9.1,0.5-14.9l0.1-0.1
			c4.2-5.8,9.9-8,13.9-5.1C408,325.3,407.6,331.4,403.3,337.3z"/>
	</g>
	<g>
		<path class="st1" d="M116,163.7l-12.9-4.8l-3.8,9.2l7.2,3l-19.9,27.3l9.9,7.3l26.8-36.7L116,163.7z"/>
	</g>
	<g>
		<path class="st1" d="M148.4,186.6c-10.3-7.6-23.2-3.7-30.7,6.6l-0.1,0.1c-7.5,10.3-7.3,23.5,3,31.1c10.4,7.6,23.2,3.7,30.7-6.6
			l0.1-0.1C159,207.5,158.8,194.2,148.4,186.6z M141.2,210.4l-0.1,0.1c-4.2,5.8-9.8,8-13.9,5c-4.1-3-3.7-9.1,0.5-14.9l0.1-0.1
			c4.3-5.8,9.9-8,13.9-5.1C145.9,198.4,145.5,204.6,141.2,210.4z"/>
	</g>
	<g>
		<path class="st1" d="M188.5,216c-10.3-7.6-23.2-3.7-30.7,6.6l-0.1,0.1c-7.5,10.3-7.3,23.5,3,31.1c10.4,7.6,23.2,3.7,30.7-6.6
			l0.1-0.1C199.1,236.8,198.9,223.5,188.5,216z M181.4,239.8l-0.1,0.1c-4.2,5.8-9.8,8-13.9,5c-4.1-3-3.7-9.1,0.5-14.9l0.1-0.1
			c4.3-5.8,9.9-8,13.9-5.1C186,227.8,185.6,233.9,181.4,239.8z"/>
	</g>
	<g>
		<path class="st1" d="M219.6,239.4l-12.9-4.8l-3.8,9.2l7.2,3l-20,27.3l9.9,7.3l26.8-36.7L219.6,239.4z"/>
	</g>
	<g>
		<path class="st1" d="M252,262.4c-10.3-7.6-23.2-3.7-30.7,6.6l-0.1,0.1c-7.5,10.3-7.3,23.5,3,31.1c10.4,7.6,23.2,3.7,30.7-6.6
			l0.1-0.1C262.5,283.2,262.3,269.9,252,262.4z M244.8,286.2l-0.1,0.1c-4.2,5.8-9.8,8-13.9,5c-4-3-3.7-9.1,0.5-14.9l0.1-0.1
			c4.2-5.8,9.9-8,13.9-5.1C249.4,274.2,249,280.3,244.8,286.2z"/>
	</g>
	<g>
		<path class="st1" d="M283,285.8l-12.9-4.8l-3.8,9.2l7.2,3l-19.9,27.3l9.9,7.3l26.8-36.7L283,285.8z"/>
	</g>
	<g>
		<path class="st1" d="M315.4,308.8c-10.3-7.6-23.2-3.7-30.7,6.6l-0.1,0.1c-7.5,10.3-7.3,23.5,3,31.1c10.4,7.6,23.2,3.7,30.7-6.6
			l0.1-0.1C326,329.6,325.8,316.3,315.4,308.8z M308.2,332.6l-0.1,0.1c-4.2,5.8-9.8,8-13.9,5c-4-3-3.7-9.1,0.5-14.9l0.1-0.1
			c4.2-5.8,9.9-8,13.9-5.1C312.9,320.5,312.5,326.7,308.2,332.6z"/>
	</g>
	<g>
		<path class="st1" d="M355.5,338.1c-10.3-7.6-23.2-3.7-30.7,6.6l-0.1,0.1c-7.5,10.3-7.3,23.5,3,31.1c10.4,7.6,23.2,3.7,30.7-6.6
			l0.1-0.1C366.1,358.9,365.9,345.7,355.5,338.1z M348.3,361.9l-0.1,0.1c-4.2,5.8-9.8,8-13.9,5c-4.1-3-3.7-9.1,0.5-14.9l0.1-0.1
			c4.2-5.8,9.9-8,13.9-5.1C353,349.9,352.6,356.1,348.3,361.9z"/>
	</g>
	<g>
		<path class="st1" d="M386.6,361.5l-12.9-4.8l-3.8,9.2l7.2,3l-12.8,17.6h15.2l14.4-19.7L386.6,361.5z"/>
	</g>
	<g>
		<path class="st1" d="M93.4,211.3c-10.3-7.6-23.2-3.7-30.7,6.6l-0.1,0.1c-7.5,10.3-7.3,23.5,3,31.1c10.4,7.6,23.2,3.7,30.7-6.6
			l0.1-0.1C104,232.1,103.8,218.8,93.4,211.3z M86.3,235.1l-0.1,0.1c-4.2,5.8-9.8,8-13.9,5c-4-3-3.7-9.1,0.5-14.9l0.1-0.1
			c4.3-5.8,9.9-8,13.9-5.1C90.9,223,90.5,229.2,86.3,235.1z"/>
	</g>
	<g>
		<path class="st1" d="M133.7,240.7c-10.3-7.6-23.2-3.7-30.7,6.6l-0.1,0.1c-7.5,10.3-7.3,23.5,3,31.1c10.4,7.6,23.2,3.7,30.7-6.6
			l0.1-0.1C144.2,261.5,144,248.2,133.7,240.7z M126.5,264.5l-0.1,0.1c-4.2,5.8-9.8,8-13.9,5c-4-3-3.7-9.1,0.5-14.9l0.1-0.1
			c4.3-5.8,9.9-8,13.9-5.1C131.1,252.4,130.7,258.6,126.5,264.5z"/>
	</g>
	<g>
		<path class="st1" d="M164.8,264.2l-12.9-4.8l-3.8,9.2l7.2,3l-19.9,27.3l9.9,7.3l26.8-36.7L164.8,264.2z"/>
	</g>
	<g>
		<path class="st1" d="M197.3,287.2c-10.3-7.6-23.2-3.7-30.7,6.6l-0.1,0.1c-7.5,10.3-7.3,23.5,3,31.1c10.4,7.6,23.2,3.7,30.7-6.6
			l0.1-0.1C207.8,308,207.6,294.8,197.3,287.2z M190.1,311l-0.1,0.1c-4.2,5.8-9.8,8-13.9,5c-4.1-3-3.7-9.1,0.5-14.9l0.1-0.1
			c4.3-5.8,9.9-8,13.9-5.1C194.7,299,194.3,305.2,190.1,311z"/>
	</g>
	<g>
		<path class="st1" d="M228.4,310.7l-12.9-4.8l-3.8,9.2l7.2,3l-20,27.3l9.9,7.3l26.8-36.7L228.4,310.7z"/>
	</g>
	<g>
		<path class="st1" d="M260.9,333.7c-10.3-7.6-23.2-3.7-30.7,6.6l-0.1,0.1c-7.5,10.3-7.3,23.5,3,31.1c10.4,7.6,23.2,3.7,30.7-6.6
			l0.1-0.1C271.5,354.6,271.2,341.3,260.9,333.7z M253.7,357.5l-0.1,0.1c-4.2,5.8-9.8,8-13.9,5c-4-3-3.7-9.1,0.5-14.9l0.1-0.1
			c4.2-5.8,9.9-8,13.9-5.1C258.3,345.5,258,351.7,253.7,357.5z"/>
	</g>
	<g>
		<path class="st1" d="M292,357.2l-12.9-4.8l-3.8,9.2l7.2,3l-16,21.9h15.2l17.5-24L292,357.2z"/>
	</g>
	<g>
		<path class="st1" d="M324.5,380.3c-10.2-7.5-22.9-3.8-30.5,6.3h36.2C328.9,384.2,327,382.1,324.5,380.3z"/>
	</g>
</g>
</svg>
