<?xml version="1.0" encoding="utf-8"?>
<!-- Generator: Adobe Illustrator 23.0.2, SVG Export Plug-In . SVG Version: 6.00 Build 0)  -->
<svg version="1.1" id="Layer_1" xmlns="http://www.w3.org/2000/svg" xmlns:xlink="http://www.w3.org/1999/xlink" x="0px" y="0px"
	 viewBox="0 0 500 500" style="enable-background:new 0 0 500 500;" xml:space="preserve">
<g>
	<path class="st0" d="M228.8,313.8c-6.2-6.4-13.3-11.3-21.2-14.6c-8-3.3-16.3-4.9-24.8-4.9c-10.9,0-19.9,2.2-27.1,6.7
		c-7.2,4.5-13.3,10.1-18.4,17v-73.8H95.9V443h41.4v-19.1c4.9,5.8,10.9,10.9,18.1,15.3c7.2,4.4,16.3,6.5,27.4,6.5
		c8.7,0,17.1-1.6,25.1-4.9c8-3.3,15-8.1,21.1-14.6c6.1-6.4,11-14.3,14.7-23.7c3.7-9.4,5.6-20.1,5.6-32.3v-0.5
		c0-12.2-1.9-22.9-5.6-32.3C240,328.1,235,320.2,228.8,313.8z M207.9,370.3c0,6.2-1,11.7-2.9,16.6c-1.9,4.9-4.5,9.1-7.8,12.7
		c-3.3,3.5-7,6.3-11.3,8.2c-4.3,1.9-8.9,2.9-13.8,2.9s-9.5-1-13.8-2.9c-4.3-1.9-8-4.6-11.2-8.2c-3.2-3.5-5.7-7.8-7.6-12.8
		c-1.9-5-2.9-10.5-2.9-16.5v-0.5c0-6,1-11.5,2.9-16.5c1.9-5,4.4-9.3,7.6-12.8c3.2-3.5,6.9-6.3,11.2-8.2c4.3-1.9,8.9-2.9,13.8-2.9
		s9.5,1,13.8,2.9c4.3,1.9,8,4.6,11.3,8.2c3.3,3.5,5.9,7.8,7.8,12.8c1.9,5,2.9,10.5,2.9,16.5V370.3z"/>
	<rect x="268" y="297" class="st0" width="41.4" height="146"/>
	<path class="st0" d="M383,259.7h-41.4V297h-17.4v35.4h17.4v69.2c0,8.5,1,15.6,3.1,21.1c2.1,5.5,5,10,8.7,13.5
		c3.7,3.5,8.2,5.9,13.3,7.2c5.2,1.4,10.9,2,17.3,2c6.9,0,13-0.8,18.2-2.3c5.3-1.5,10.1-3.6,14.4-6.1v-33.2
		c-6.4,3.6-13.2,5.4-20.4,5.4c-8.9,0-13.3-4.7-13.3-14.2v-62.6h34.3V297H383V259.7z"/>
	<path class="st0" d="M289.8,237.2c-0.2,0-0.3,0-0.5,0L272,190.6c19.2-10.3,31.8-31,30.7-54.2c-0.2-3.9-0.7-7.7-1.6-11.4l75.7-30.3
		c4.7,5.5,11.8,8.8,19.6,8.4c13.5-0.6,24-12.1,23.4-25.6c-0.6-13.5-12.1-24-25.6-23.4c-13.5,0.6-24,12.1-23.4,25.6c0,0,0,0,0,0
		l-75.7,30.3c-10.5-18.4-30.8-30.5-53.4-29.4c-28.6,1.3-51.5,23-55.2,50.4h-58.5c-3.5-10-13.2-17-24.3-16.4
		c-13.5,0.6-24,12.1-23.4,25.6c0.6,13.5,12.1,24,25.6,23.4c10.3-0.5,18.8-7.3,22-16.4h58.5c4.1,29.6,30.1,51.7,60.6,50.4
		c3.4-0.2,6.7-0.6,9.9-1.3l17.3,46.6c-5.4,4.5-8.9,11.3-8.9,18.9c0,13.5,11,24.5,24.5,24.5c13.5,0,24.5-11,24.5-24.5
		C314.3,248.2,303.3,237.2,289.8,237.2z"/>
</g>
</svg>
