<?xml version="1.0" encoding="utf-8"?>
<!-- Generator: Adobe Illustrator 23.0.2, SVG Export Plug-In . SVG Version: 6.00 Build 0)  -->
<svg version="1.1" id="Layer_1" xmlns="http://www.w3.org/2000/svg" xmlns:xlink="http://www.w3.org/1999/xlink" x="0px" y="0px"
	 viewBox="0 0 500 500" style="enable-background:new 0 0 500 500;" xml:space="preserve">
<g>
	<g>
		<g>
			<circle class="st0" cx="93.4" cy="155.2" r="34.7"/>
		</g>
		<g>
			<circle class="st0" cx="269.7" cy="379.4" r="24.5"/>
		</g>
		<g>
			<circle class="st0" cx="220.7" cy="130.7" r="24.5"/>
		</g>
		<g>
			<circle class="st0" cx="389" cy="96" r="34.7"/>
		</g>
		<g>
			<circle class="st0" cx="254.6" cy="260.2" r="58.5"/>
		</g>
		<g>
			
				<rect x="165.9" y="111.5" transform="matrix(0.5455 -0.8381 0.8381 0.5455 -95.0173 240.2286)" class="st0" width="16.1" height="192.4"/>
		</g>
		<g>
			<path class="st1" d="M389,96"/>
		</g>
		<g>
			<path class="st1" d="M254.6,260.2"/>
		</g>
		<g>
			
				<rect x="254.1" y="259.7" transform="matrix(0.9921 -0.1257 0.1257 0.9921 -38.119 35.4893)" class="st0" width="16.1" height="120.2"/>
		</g>
		<g>
			
				<rect x="322.6" y="212.5" transform="matrix(0.4342 -0.9008 0.9008 0.4342 -80.3247 465.8163)" class="st0" width="16.1" height="168.8"/>
		</g>
		<g>
			
				<rect x="216" y="170.2" transform="matrix(0.6372 -0.7707 0.7707 0.6372 -20.4048 313.1467)" class="st0" width="212.7" height="16.1"/>
		</g>
		<g>
			
				<rect x="229.6" y="128.5" transform="matrix(0.9673 -0.2535 0.2535 0.9673 -41.7883 66.6365)" class="st0" width="16.1" height="133.9"/>
		</g>
	</g>
	<g>
		<circle class="st0" cx="406.6" cy="333.5" r="34.7"/>
	</g>
	<g>
		<circle class="st0" cx="113.8" cy="404" r="34.7"/>
	</g>
	<g>
		
			<rect x="83.6" y="324" transform="matrix(0.6997 -0.7144 0.7144 0.6997 -181.9323 231.3181)" class="st0" width="201.2" height="16.1"/>
	</g>
</g>
</svg>
